<?xml version="1.0" standalone="no"?>
<!DOCTYPE svg PUBLIC "-//W3C//DTD SVG 20010904//EN"
 "http://www.w3.org/TR/2001/REC-SVG-20010904/DTD/svg10.dtd">
<svg version="1.0" xmlns="http://www.w3.org/2000/svg"
 width="920.000000pt" height="920.000000pt" viewBox="0 0 920.000000 920.000000"
 preserveAspectRatio="xMidYMid meet">
<metadata>
Created by potrace 1.11, written by Peter Selinger 2001-2013
</metadata>
<g transform="translate(0.000000,920.000000) scale(0.100000,-0.100000)"
fill="#000000" stroke="none">
<path d="M1836 9173 c-3 -16 -13 -71 -22 -123 -8 -52 -18 -108 -21 -125 -2
-16 -6 -39 -7 -50 -2 -11 -6 -38 -10 -60 -4 -22 -9 -53 -11 -70 -5 -37 -33
-211 -39 -245 -3 -14 -7 -43 -11 -65 -3 -22 -10 -65 -15 -95 -9 -54 -16 -93
-25 -155 -2 -16 -7 -43 -10 -60 -11 -63 -17 -101 -21 -130 -5 -34 -10 -67 -18
-110 -10 -60 -17 -100 -21 -125 -2 -14 -6 -43 -10 -65 -3 -22 -8 -52 -11 -67
-2 -16 -7 -43 -10 -60 -3 -18 -7 -44 -9 -58 -9 -61 -16 -109 -25 -155 -5 -27
-12 -68 -15 -90 -4 -22 -8 -53 -11 -70 -3 -16 -6 -41 -8 -55 -2 -14 -9 -54
-16 -90 -7 -36 -14 -78 -16 -95 -3 -28 -9 -67 -20 -125 -2 -14 -13 -83 -25
-155 -11 -71 -22 -139 -24 -150 -4 -18 -10 -58 -20 -125 -2 -14 -9 -54 -15
-90 -6 -36 -13 -81 -16 -100 -2 -19 -6 -46 -9 -60 -6 -27 -10 -54 -19 -110 -3
-19 -14 -89 -25 -154 -11 -66 -19 -122 -19 -125 1 -5 -6 -47 -19 -106 -2 -11
-6 -39 -9 -62 -5 -40 -3 -43 18 -44 57 -3 92 5 223 51 77 26 203 69 280 95 77
26 149 51 160 56 11 5 29 11 40 12 11 2 31 8 45 14 14 5 71 25 127 44 120 39
115 34 138 184 10 67 16 104 20 125 3 13 7 42 10 65 3 22 11 67 16 100 6 33
12 74 14 90 2 17 6 44 10 60 3 17 8 46 11 65 2 19 9 60 14 90 11 65 17 101 25
155 3 23 7 50 9 60 20 113 50 380 61 553 3 37 7 119 11 182 5 106 12 129 36
130 7 0 27 -65 33 -105 4 -31 14 -79 30 -147 8 -35 16 -74 19 -88 6 -33 69
-276 96 -370 12 -41 23 -83 25 -92 2 -9 9 -26 15 -37 6 -12 8 -21 5 -21 -2 0
2 -17 9 -37 15 -40 59 -177 121 -378 20 -66 41 -129 45 -140 5 -11 15 -40 21
-65 7 -25 16 -49 21 -54 4 -6 8 -18 8 -28 0 -16 3 -16 43 -2 23 9 49 17 57 19
8 2 80 26 160 55 80 28 152 53 160 55 8 2 35 10 60 20 25 9 106 36 180 61 74
24 142 47 150 51 8 3 18 7 23 8 4 2 8 3 10 5 1 1 9 3 17 5 44 10 376 128 387
137 11 9 41 93 49 136 1 7 9 36 18 65 28 90 86 309 102 382 9 39 22 99 30 135
8 36 17 78 19 94 2 15 7 36 10 46 6 19 7 24 21 100 4 25 8 47 9 50 1 3 5 25 9
50 5 25 10 53 12 62 5 31 19 47 32 39 14 -8 18 -34 27 -161 8 -111 14 -185 20
-235 3 -22 8 -60 10 -85 12 -99 15 -126 19 -150 3 -14 7 -47 11 -75 3 -27 8
-63 10 -80 5 -33 10 -73 20 -150 4 -27 12 -55 18 -62 14 -13 -5 -19 492 151
187 65 347 119 357 121 9 2 30 11 48 20 31 16 32 18 25 63 -4 26 -9 58 -10 72
-3 21 -14 94 -30 190 -2 14 -7 45 -10 70 -3 25 -7 56 -10 70 -3 14 -7 43 -10
65 -2 22 -7 51 -10 65 -3 14 -8 45 -10 70 -2 25 -7 56 -10 70 -3 14 -8 39 -10
55 -2 17 -7 48 -10 70 -3 22 -7 56 -10 75 -3 19 -7 46 -10 60 -3 14 -7 45 -10
70 -3 25 -7 56 -10 70 -3 14 -8 48 -11 75 -3 28 -7 56 -9 63 -3 7 -8 39 -11
70 -3 31 -8 60 -10 64 -2 3 -6 28 -9 55 -3 26 -7 57 -9 68 -2 11 -7 45 -12 75
-4 30 -8 57 -9 60 -1 3 -5 34 -9 70 -5 36 -10 74 -12 85 -3 11 -11 67 -20 125
-8 58 -17 116 -20 130 -2 14 -7 48 -10 75 -3 28 -8 52 -11 55 -2 3 -235 6
-518 8 l-512 3 -12 -28 c-10 -25 -111 -354 -131 -428 -5 -16 -13 -46 -20 -65
-6 -19 -13 -42 -15 -50 -2 -8 -18 -62 -35 -120 -18 -58 -33 -109 -34 -115 -1
-5 -7 -26 -13 -45 -29 -89 -84 -270 -88 -286 -2 -11 -18 -64 -35 -118 -18 -55
-33 -104 -35 -110 -1 -6 -4 -18 -8 -26 -3 -8 -28 -94 -56 -190 -62 -215 -106
-399 -156 -658 -9 -48 -17 -63 -33 -60 -14 3 -27 42 -47 139 -51 260 -149 611
-277 994 -16 50 -31 97 -33 105 -4 19 -64 210 -72 230 -3 8 -7 20 -9 25 -1 6
-15 48 -30 95 -15 47 -29 90 -30 95 -1 6 -27 87 -58 181 -31 94 -56 176 -56
183 0 6 -4 19 -9 29 -5 9 -19 51 -32 92 -12 41 -29 87 -36 103 l-14 27 -508 0
-509 0 -6 -27z"/>
<path d="M5797 9193 c-3 -5 -5 -484 -5 -1065 l0 -1058 23 0 c12 0 25 3 29 7 3
4 12 8 19 9 15 2 135 42 162 54 11 5 130 45 265 90 135 45 253 86 262 91 10 5
22 9 27 9 5 0 22 5 38 12 15 6 33 12 38 13 6 2 37 12 70 23 300 103 892 304
900 306 30 7 92 30 103 39 6 5 12 7 12 3 0 -3 19 2 43 11 86 34 90 74 7 65
-23 -3 -40 -3 -98 -1 -29 1 -55 0 -58 -3 -3 -3 -22 -2 -42 3 -20 4 -38 4 -40
0 -2 -5 -18 -5 -38 -1 -19 4 -36 4 -39 0 -3 -4 -22 -4 -42 0 -22 5 -40 5 -43
0 -3 -5 -12 -5 -19 0 -8 4 -24 4 -37 0 -12 -5 -24 -6 -27 -4 -9 9 -77 12 -77
4 0 -4 -16 -4 -35 0 -19 4 -37 4 -40 0 -3 -4 -22 -4 -42 0 -22 5 -40 5 -43 0
-3 -5 -12 -5 -19 0 -8 4 -24 4 -37 0 -12 -5 -24 -6 -27 -4 -10 10 -77 12 -77
3 0 -6 -6 -6 -17 -1 -9 5 -29 6 -44 2 -18 -6 -31 -4 -37 3 -5 7 -8 140 -8 297
1 247 3 284 16 281 30 -8 1106 -7 1123 1 16 8 17 38 17 407 0 355 -2 400 -16
405 -23 9 -2142 7 -2147 -1z"/>
<path d="M7675 7649 c-128 -72 -166 -93 -290 -162 -60 -34 -111 -65 -113 -69
-2 -5 -8 -8 -14 -8 -6 0 -70 -33 -142 -74 -72 -41 -135 -74 -140 -74 -5 0 -12
-4 -15 -9 -3 -5 -55 -36 -116 -69 -60 -34 -126 -70 -145 -81 -74 -42 -142 -79
-325 -181 -104 -59 -192 -109 -195 -112 -3 -3 -30 -18 -60 -33 -81 -42 -193
-104 -205 -113 -6 -5 -32 -20 -57 -34 -27 -14 -52 -35 -58 -50 -7 -16 -9 -164
-8 -427 2 -220 0 -399 -4 -397 -3 2 -9 23 -13 47 -4 23 -9 51 -11 62 -2 11 -6
34 -8 50 -2 17 -9 59 -15 95 -6 36 -13 84 -16 108 -3 24 -7 53 -10 65 -2 12
-7 38 -9 57 -18 130 -37 257 -41 268 -5 13 -24 4 -315 -160 -63 -36 -135 -76
-160 -90 -318 -178 -410 -232 -411 -239 -1 -5 -2 -15 -3 -21 -1 -7 0 -17 3
-22 2 -5 6 -27 7 -47 2 -21 7 -55 13 -76 5 -21 15 -72 21 -113 21 -136 29
-173 40 -184 11 -11 3071 -13 3089 -2 16 10 16 812 0 822 -15 9 -1113 9 -1128
0 -6 -4 -13 -1 -16 6 -2 7 -3 146 -2 308 l2 295 196 1 c224 0 211 -4 289 95
29 35 64 80 80 99 15 19 87 109 160 200 72 91 139 174 148 185 10 11 31 38 47
60 17 22 36 46 43 53 14 15 15 22 5 22 -5 0 -48 -23 -98 -51z"/>
<path d="M3662 5448 c-42 -20 -97 -49 -122 -64 -25 -14 -85 -49 -135 -77 -49
-27 -106 -59 -125 -70 -49 -28 -105 -59 -175 -97 -143 -78 -173 -99 -188 -138
-18 -44 -41 -127 -36 -128 2 0 -1 -7 -7 -15 -9 -11 -18 -37 -29 -79 -1 -6 -29
-91 -107 -330 -33 -102 -61 -192 -63 -200 -2 -8 -10 -35 -18 -60 -9 -25 -36
-119 -60 -210 -40 -148 -56 -212 -73 -290 -3 -14 -9 -41 -14 -60 -5 -19 -12
-50 -15 -69 -3 -19 -7 -37 -9 -40 -2 -3 -7 -26 -10 -51 -3 -25 -12 -66 -19
-90 l-13 -45 -17 26 c-12 18 -19 55 -23 120 -10 190 -13 225 -18 284 -3 33 -9
89 -12 125 -6 69 -10 100 -19 165 -2 22 -7 60 -10 85 -6 45 -10 77 -20 135 -3
17 -12 77 -20 135 -9 58 -18 110 -20 117 -2 6 -7 38 -11 70 -3 32 -8 60 -9 61
-4 5 -78 -30 -145 -69 -30 -17 -80 -45 -110 -61 -30 -17 -84 -48 -120 -68 -36
-21 -90 -51 -120 -68 -116 -63 -366 -205 -377 -214 -11 -8 -10 -21 1 -95 3
-16 7 -46 11 -68 3 -22 11 -67 17 -100 5 -33 11 -69 13 -80 8 -58 17 -115 25
-160 5 -27 11 -66 14 -85 14 -100 17 -117 23 -145 4 -16 7 -39 8 -50 1 -11 5
-36 8 -55 4 -19 18 -105 32 -190 14 -85 27 -164 29 -175 2 -11 7 -40 10 -65 3
-25 8 -56 11 -70 3 -14 7 -43 10 -65 7 -48 13 -80 15 -80 1 0 3 -16 5 -35 1
-20 8 -60 13 -90 6 -30 14 -75 17 -100 3 -25 8 -52 10 -60 2 -8 6 -33 10 -55
3 -22 17 -110 31 -195 14 -85 28 -166 30 -180 14 -98 23 -133 34 -140 6 -4
237 -7 511 -6 432 1 501 3 509 16 8 13 26 64 36 105 1 6 9 29 18 53 8 23 15
45 15 48 -1 2 3 17 9 32 6 15 20 61 33 102 12 41 25 80 28 85 3 6 6 17 8 25 1
8 25 87 54 174 28 88 52 164 53 170 1 6 4 16 7 21 5 8 15 38 24 75 3 12 148
459 161 495 18 52 84 283 90 315 3 14 14 54 24 90 11 36 22 80 25 99 3 19 8
37 10 41 2 3 6 17 9 31 2 13 16 71 30 129 14 58 28 124 32 147 8 55 41 66 50
18 1 -5 16 -75 34 -155 17 -80 33 -157 35 -172 2 -15 6 -31 9 -36 3 -5 7 -19
10 -33 14 -67 75 -285 150 -534 37 -121 68 -227 70 -236 6 -25 65 -218 80
-264 8 -22 21 -65 30 -95 8 -30 48 -161 87 -290 38 -129 72 -242 74 -250 11
-40 59 -196 63 -200 2 -3 233 -5 513 -6 571 -1 522 -8 532 76 4 25 8 56 11 70
3 14 7 45 10 70 3 25 8 54 10 65 2 11 7 42 10 68 4 27 9 56 11 65 1 10 6 37 9
62 3 25 8 54 10 65 2 11 6 41 10 66 4 25 9 57 11 70 2 13 9 60 15 104 11 75
13 93 24 163 3 15 8 52 11 82 4 30 9 58 11 61 2 4 6 33 9 65 3 33 8 67 11 77
3 10 7 32 9 50 2 18 8 61 13 97 18 108 23 143 28 180 2 19 6 46 9 60 3 14 7
43 10 65 2 22 6 49 8 60 3 11 8 45 12 75 4 30 9 64 11 75 2 10 6 37 9 60 3 22
8 51 10 65 3 14 7 43 10 65 2 22 7 49 9 60 2 11 7 40 10 65 3 25 8 56 10 70 3
14 10 61 16 105 14 100 19 133 25 165 2 14 7 45 10 70 3 25 7 56 9 70 3 14 7
41 10 60 3 19 10 61 15 94 6 32 10 61 9 65 0 3 1 8 2 11 1 3 3 14 4 25 6 42
18 131 21 145 2 8 8 51 15 95 6 44 13 91 16 105 2 14 6 43 9 65 11 88 25 124
26 69 0 -16 0 -788 -1 -1715 -1 -1373 1 -1688 12 -1696 16 -12 2132 -12 2145
0 4 5 8 186 9 404 0 376 -1 395 -18 402 -10 4 -270 6 -577 6 l-558 -1 0 288 1
288 515 1 c284 0 524 1 534 1 15 1 15 5 -7 27 -13 14 -80 97 -149 183 -69 87
-131 163 -136 170 -9 10 -134 170 -168 213 -5 6 -26 32 -48 60 -22 27 -47 58
-55 68 -8 11 -29 35 -47 56 l-32 36 -198 1 c-109 1 -201 2 -204 3 -3 1 -5 136
-5 301 l0 300 125 0 c69 1 324 1 566 0 242 0 445 4 451 8 16 11 13 810 -3 820
-6 4 -700 7 -1542 7 -1187 0 -1533 -3 -1542 -12 -7 -7 -13 -20 -14 -30 -1 -10
-6 -36 -10 -58 -12 -64 -15 -78 -21 -125 -3 -25 -8 -48 -10 -51 -1 -3 -6 -28
-9 -55 -4 -27 -9 -57 -11 -67 -3 -10 -8 -32 -10 -50 -3 -18 -7 -43 -9 -57 -3
-14 -8 -43 -11 -65 -9 -61 -22 -139 -30 -180 -3 -11 -7 -36 -10 -55 -8 -53
-13 -82 -18 -110 -3 -14 -8 -41 -10 -60 -3 -19 -8 -46 -11 -60 -3 -14 -8 -42
-10 -64 -2 -21 -6 -46 -9 -55 -3 -9 -7 -38 -11 -66 -3 -27 -8 -57 -10 -65 -7
-25 -35 -220 -33 -229 1 -6 -10 -101 -17 -150 -3 -13 -7 -58 -11 -100 -3 -42
-8 -92 -10 -111 -2 -19 -6 -71 -9 -115 -6 -90 -13 -147 -20 -153 -13 -13 -35
12 -40 45 -3 21 -11 61 -18 88 -6 28 -11 55 -12 60 -4 48 -38 204 -115 525
-16 67 -52 196 -82 295 -16 55 -31 105 -32 110 -10 40 -28 103 -33 115 -3 8
-7 20 -8 25 -2 6 -20 66 -40 135 -20 69 -48 163 -62 210 -14 47 -27 92 -29
100 -1 8 -21 73 -42 143 -22 70 -40 129 -40 130 0 1 -3 9 -5 17 -3 8 -13 41
-22 72 -9 32 -22 61 -28 65 -7 4 -33 8 -60 8 -36 1 -67 -8 -125 -37z"/>
<path d="M2107 910 c-196 -61 -322 -243 -319 -462 2 -163 105 -324 255 -398
79 -38 94 -42 197 -46 178 -6 339 88 411 241 39 82 50 149 40 242 -1 15 -401
15 -407 -1 -8 -22 -10 -137 -2 -142 5 -3 53 -6 108 -7 55 0 100 -4 100 -9 0
-33 -89 -128 -119 -128 -6 0 -11 -4 -11 -8 0 -11 -9 -12 -97 -17 -88 -4 -149
20 -206 84 -55 61 -70 103 -69 201 0 119 7 141 72 223 18 22 89 66 122 73 109
27 200 -1 278 -87 l35 -38 34 27 c18 15 49 41 69 58 l36 32 -50 49 c-58 59
-102 87 -177 112 -73 25 -220 26 -300 1z"/>
<path d="M4195 925 c-68 -19 -155 -50 -155 -57 0 -4 -6 -8 -14 -8 -18 0 -146
-120 -146 -136 0 -7 -3 -14 -7 -16 -13 -5 -52 -100 -63 -149 -11 -55 -5 -190
10 -219 6 -11 8 -20 5 -20 -3 0 9 -28 26 -62 64 -128 172 -202 344 -240 54
-12 176 -15 215 -6 127 32 226 107 288 220 111 199 80 423 -78 571 -95 89
-172 119 -315 122 -55 1 -104 1 -110 0z m221 -193 c88 -45 147 -130 156 -226
14 -132 -47 -243 -164 -302 -98 -50 -245 -31 -318 39 -40 39 -60 66 -60 82 0
8 -4 15 -8 15 -14 0 -29 77 -26 142 5 131 80 227 214 271 37 13 166 0 206 -21z"/>
<path d="M5162 891 c-3 -7 -5 -205 -5 -440 l-1 -426 180 -2 c158 -3 187 0 246
18 110 35 166 105 172 214 5 96 -34 162 -119 201 -57 27 -64 30 -82 33 -5 0
11 11 35 22 143 71 140 288 -5 363 -42 21 -110 29 -271 30 -115 1 -146 -2
-150 -13z m294 -148 c33 -15 51 -41 58 -86 4 -22 -2 -37 -27 -63 -27 -30 -40
-36 -89 -41 l-58 -6 -1 37 c0 20 0 56 0 81 0 101 -3 95 44 94 23 -1 56 -8 73
-16z m-16 -348 c63 -7 94 -22 112 -53 22 -39 16 -107 -12 -137 -25 -26 -45
-32 -137 -40 l-63 -4 -1 32 c-3 106 -1 195 5 205 3 6 16 9 29 6 12 -2 42 -6
67 -9z"/>
<path d="M6368 900 c-16 -4 -28 -20 -42 -55 -10 -28 -22 -59 -27 -70 -4 -11
-30 -85 -57 -165 -28 -80 -84 -243 -126 -362 -42 -120 -76 -219 -76 -221 0 -2
40 -4 89 -5 76 -1 90 1 96 16 13 33 56 157 54 160 0 2 4 15 9 30 6 15 25 74
42 132 18 58 39 128 48 155 9 28 17 52 17 55 9 43 40 130 46 130 4 0 13 -19
19 -42 6 -24 20 -68 30 -98 11 -30 38 -116 60 -190 23 -74 45 -144 50 -155 5
-11 18 -52 29 -92 12 -39 27 -78 35 -86 19 -18 186 -22 186 -3 0 7 -3 16 -7
20 -4 3 -8 12 -9 19 -1 7 -14 44 -28 82 -77 215 -135 379 -188 535 -33 96 -68
184 -79 195 -15 15 -33 20 -83 20 -36 0 -75 -2 -88 -5z"/>
<path d="M3083 476 c0 -233 -3 -428 -7 -435 -9 -14 -19 -13 237 -15 114 -1
215 2 225 6 9 3 11 7 5 7 -9 1 -10 8 -4 24 5 13 5 30 1 37 -5 8 -5 21 0 31 6
10 5 23 -4 34 -12 17 -29 19 -145 18 l-131 -2 0 360 0 359 -89 0 -88 0 0 -424z"/>
<path d="M7199 893 c-4 -65 1 -544 6 -552 3 -6 3 -11 -2 -11 -12 0 -7 -292 5
-299 8 -5 393 -7 438 -2 13 1 17 120 5 140 -7 10 -41 14 -141 15 l-133 1 -1
355 -1 355 -87 3 c-49 1 -88 -1 -89 -5z"/>
</g>
</svg>
