<svg xmlns="http://www.w3.org/2000/svg" viewBox="0 0 83.702 114.755">
  <g fill="#fff">
    <path d="M38.593 114.706c-3.818-.009-6.1-1.807-6.664-4.653a5.721 5.721 0 014.578-6.753c2.546-.45 4.79.14 6.327 2.346a5.535 5.535 0 01.3 6.015 5.322 5.322 0 01-4.541 3.045zm-.755-9.428a3.5 3.5 0 00-3.605 3.689 3.488 3.488 0 003.557 3.623 3.653 3.653 0 003.694-3.719 3.5 3.5 0 00-3.646-3.593zM17.252 105.494l-1.8 1.436a2.345 2.345 0 00-.277-.48 3.382 3.382 0 00-3.908-1.016 3.494 3.494 0 00-2.124 3.4 3.51 3.51 0 002.534 3.709 3.16 3.16 0 003.693-1.619c.041-.1.062-.206.115-.383h-2.666c0-.613-.012-1.189.014-1.763 0-.08.194-.217.3-.218 1.478-.015 2.956-.012 4.435-.011.142 0 .285.019.418.028a5.294 5.294 0 01-3.078 5.633 5.65 5.65 0 01-6.248-.9 5.643 5.643 0 01-1.634-6.2 5.273 5.273 0 014.729-3.9 5.515 5.515 0 015.497 2.284zM48.746 103.522c1.441 0 2.849-.1 4.239.025a2.641 2.641 0 012.414 3.168 2.329 2.329 0 01-1.814 1.879l.475.185c.135.053.272.1.406.162a2.44 2.44 0 011.707 2.078 2.864 2.864 0 01-1.375 2.942 4.9 4.9 0 01-1.323.483 4.2 4.2 0 01-.981.046h-3.748zm2.243 9.22a18.368 18.368 0 001.831-.155 1.223 1.223 0 001.026-1.3 1.257 1.257 0 00-.869-1.366 15.9 15.9 0 00-1.987-.215zm.009-4.87c.8.025 1.554.093 2.01-.65a1.185 1.185 0 00-.055-1.387c-.5-.662-1.228-.565-1.955-.53zM69.881 114.48c-.763 0-1.455.028-2.142-.022-.146-.011-.335-.287-.4-.475-.748-2.322-1.475-4.65-2.207-6.977-.12-.381-.237-.763-.387-1.247-.283.934-.533 1.778-.794 2.619-.582 1.877-1.177 3.751-1.747 5.632-.106.349-.252.508-.641.483-.579-.037-1.162-.009-1.822-.009.067-.233.108-.4.165-.567 1.163-3.316 2.332-6.63 3.485-9.95.12-.346.277-.5.66-.472.634.044 1.428-.191 1.865.111s.521 1.111.733 1.708q1.519 4.272 3.023 8.549c.068.182.127.369.209.617zM25.069 112.489c1.077 0 2.043.013 3.008-.007.373-.008.529.1.506.493-.028.47-.007.942-.007 1.46h-5.727v-10.9h2.22zM74.213 114.43v-10.9h2.211v8.954c.994 0 1.919.039 2.84-.014.582-.034.736.175.682.71-.04.4-.008.8-.008 1.247z"/>
    <g>
      <path d="M68.264 74.493v7.229c.151 0 .31.006.467 0 .619-.027 1.237-.083 1.856-.084q5.64-.012 11.28-.005c.8 0 .8 0 .8.773V91.495c0 .268-.116.41-.394.4H56.423c-.786 0-.788 0-.788-.78q0-16.92.005-33.84c0-2.5.051-5 .068-7.492a3.092 3.092 0 00-.176-1.054q-.341 2.24-.68 4.481-.471 3.138-.936 6.277l-1.383 9.252c-.336 2.236-.68 4.471-1.016 6.707q-.59 3.922-1.172 7.846-.509 3.381-1.026 6.761c-.055.361-.115.721-.162 1.082-.1.757-.1.759-.885.759h-11.5c-.624 0-.626 0-.8-.581q-2.417-8.019-4.83-16.04c-.643-2.15-1.282-4.3-1.845-6.474-.417-1.606-.708-3.244-1.056-4.867-.046-.214-.084-.431-.15-.638-.023-.07-.129-.165-.188-.159a.374.374 0 00-.252.153 1.121 1.121 0 00-.1.365 118.02 118.02 0 01-3.749 13.721c-1.484 4.583-2.922 9.181-4.383 13.773-.238.748-.244.748-1.02.748H7.119c-.773 0-.768 0-.891-.762q-.847-5.212-1.7-10.423-.957-5.887-1.908-11.775-.463-2.863-.919-5.727c-.082-.511-.08-.513.381-.771q4.894-2.744 9.789-5.486c.219-.123.448-.229.752-.384.063.345.12.621.163.9.32 2.054.669 4.1.945 6.165.212 1.589.348 3.188.485 4.786.1 1.216.154 2.437.235 3.656a2.465 2.465 0 00.105.646c.041.118.189.2.367.372.084-.31.148-.5.185-.686a99.6 99.6 0 013.251-12.494c.825-2.475 1.6-4.968 2.38-7.458a1.42 1.42 0 01.739-.877 699.6 699.6 0 008.686-4.878 3.6 3.6 0 012.062-.34c.28.011.334.237.4.452.363 1.225.732 2.448 1.094 3.673 1 3.377 1.985 6.758 2.992 10.133a110.25 110.25 0 012.787 11.99 1.192 1.192 0 00.087.369.33.33 0 00.248.156.3.3 0 00.211-.2 8.548 8.548 0 00.118-.922c.082-1 .13-2 .238-3 .219-2.011.4-4.03.719-6.026.749-4.682 1.57-9.354 2.364-14.029.122-.719.249-1.438.389-2.154.084-.431.11-.44.535-.458.128-.006.255 0 .383 0h36.961c.971 0 .917-.043.917.932v8.98c-.02.419-.067.466-.479.488-.128.007-.256 0-.383 0H68.27v7.556h.831c1.259 0 2.519.007 3.778-.009a1 1 0 01.88.424q3.745 4.715 7.515 9.409c.066.082.122.171.257.359H68.264zM21.517 38.614c-.081-.2-.145-.325-.188-.461q-1.389-4.355-2.772-8.711a95.41 95.41 0 01-2.411-9.772 3.508 3.508 0 00-.126-.532c-.032-.086-.145-.209-.205-.2a.507.507 0 00-.286.191c-.048.061-.037.174-.043.265-.038.582-.083 1.164-.106 1.746a82.771 82.771 0 01-1.064 9.944q-.8 4.914-1.583 9.831c-.012.072-.029.143-.035.216a.758.758 0 01-.608.724c-2.563.85-5.119 1.724-7.676 2.592q-1.425.484-2.847.98a3.16 3.16 0 01-1.563.072c.019-.214.025-.409.056-.6q.556-3.43 1.119-6.858.86-5.292 1.715-10.585L4.58 17.088q.855-5.266 1.705-10.531L7.256.563c.088-.539.108-.559.669-.56h11.716c.513 0 .55.024.7.505q1.453 4.536 2.9 9.074.863 2.712 1.719 5.427c.927 2.922 1.888 5.834 2.6 8.817.336 1.4.629 2.813.943 4.22a3.319 3.319 0 00.135.529.321.321 0 00.225.184.341.341 0 00.228-.187 1.8 1.8 0 00.107-.422c.525-2.649 1.079-5.293 1.839-7.886.652-2.224 1.34-4.437 2.008-6.655q1.8-5.975 3.594-11.951c.121-.4.251-.8.357-1.207a.51.51 0 01.582-.45c.145.01.292 0 .438 0h11.278c.777 0 .772 0 .885.764q.7 4.707 1.407 9.414l1.69 11.362q.4 2.651.81 5.3c.1.632.075.686-.5.882L43.222 31.25c-.052.018-.1.036-.156.052-.509.157-.575.131-.646-.389-.3-2.2-.62-4.4-.874-6.613-.193-1.683-.3-3.376-.442-5.064a.715.715 0 00-.067-.315.381.381 0 00-.254-.151.258.258 0 00-.193.152 5.123 5.123 0 00-.147.639c-.549 3-1.149 5.984-1.951 8.926-.4 1.461-.827 2.914-1.22 4.376a.872.872 0 01-.664.637q-2.985 1-5.962 2.02-4.2 1.431-8.392 2.865c-.225.076-.451.14-.737.229zM69.24 27.601v7.6c.361-.016.7-.045 1.039-.045q6.352-.005 12.7 0h.164c.511.016.552.047.552.579v9.254c0 .526-.041.557-.558.571H45.792c-.7 0-.838.173-1-.842-.235-1.514-.525-3.019-.79-4.528-.091-.521-.074-.563.395-.826q4.584-2.569 9.171-5.134c.46-.257.918-.517 1.463-.824.264 1.139.345 2.241.523 3.323.184 1.116.345 2.234.513 3.353.165 1.1.325 2.2.593 3.3v-.656c0-3.176.01-6.352-.016-9.528a1.041 1.041 0 01.638-1.058c2.893-1.592 5.766-3.222 8.648-4.835q4.347-2.432 8.7-4.857 2.986-1.67 5.967-3.349c.261-.146.534-.273.8-.409l.067.093-1.453 1.827c-1.7 2.123-3.408 4.236-5.088 6.374a1.43 1.43 0 01-1.28.639c-1.453-.048-2.912-.022-4.403-.022zM56.695 26.625c-.013-.214-.032-.391-.032-.567V.716.552c.015-.494.05-.531.528-.547h25.615c.944 0 .9-.05.9.891v8.648c0 .731 0 .734-.724.734q-6.076 0-12.151-.006c-.506 0-1.011-.06-1.555-.094v7.275h13.109a.69.69 0 01-.416.6 2.332 2.332 0 01-.456.183l-13.319 4.519q-5.544 1.886-11.084 3.782a4.144 4.144 0 01-.415.088z"/>
    </g>
  </g>
</svg>
