<svg xmlns="http://www.w3.org/2000/svg" width="143.478" height="196.858">
  <path fill="none" d="M58.724 186.928a5.983 5.983 0 006.1 6.216 6.266 6.266 0 006.336-6.38 6.011 6.011 0 00-6.254-6.164 6.011 6.011 0 00-6.182 6.328z"/>
  <path d="M62.626 177.207a9.814 9.814 0 00-7.853 11.585c.969 4.882 4.882 7.966 11.432 7.982a8.621 8.621 0 005.362-2.129v-15.512c-2.447-2.037-5.535-2.528-8.941-1.926zm8.537 9.557a6.266 6.266 0 01-6.336 6.38 5.983 5.983 0 01-6.1-6.216 6.011 6.011 0 016.185-6.328 6.011 6.011 0 016.251 6.164zM30.134 186.209c-2.536 0-5.072-.007-7.607.019-.18 0-.507.236-.513.374-.045.985-.024 1.973-.024 3.025h4.58c-.09.3-.126.487-.2.656a5.421 5.421 0 01-6.334 2.778c-2.728-.7-4.4-3.146-4.347-6.362a5.993 5.993 0 013.644-5.832c2.415-.946 4.7-.362 6.7 1.743a4.029 4.029 0 01.475.823l3.08-2.463a9.46 9.46 0 00-9.431-3.917c-4.039.546-6.962 2.7-8.113 6.689-1.16 4.021-.449 7.776 2.8 10.628 3.168 2.779 6.892 3.131 10.719 1.55 3.7-1.528 6.126-6.113 5.281-9.662-.217-.018-.466-.049-.71-.049zM48.163 192.959c-1.656.035-3.313.012-5.16.012v-15.367h-3.808v18.707h9.824c0-.888-.036-1.7.011-2.5.04-.676-.226-.866-.867-.852z"/>
  <path fill="#010101" d="M70.535 108.064c-.548 3.424-.858 6.887-1.233 10.337-.186 1.708-.268 3.428-.409 5.142a14.605 14.605 0 01-.2 1.581.522.522 0 01-.361.338.567.567 0 01-.426-.268 2.046 2.046 0 01-.149-.632 189.163 189.163 0 00-4.78-20.568c-1.729-5.789-3.422-11.588-5.134-17.382-.621-2.1-1.253-4.2-1.877-6.3-.109-.37-.2-.757-.683-.775a6.168 6.168 0 00-3.536.583c-4.941 2.836-9.918 5.607-14.9 8.368a2.436 2.436 0 00-1.268 1.5c-1.337 4.272-2.667 8.547-4.083 12.794a170.864 170.864 0 00-5.578 21.432c-.064.327-.173.645-.317 1.177-.3-.3-.559-.435-.629-.638a4.229 4.229 0 01-.18-1.108c-.139-2.09-.224-4.185-.4-6.272-.235-2.741-.468-5.485-.832-8.21-.473-3.534-1.072-7.052-1.621-10.576-.075-.478-.172-.953-.28-1.545-.522.266-.914.449-1.29.659q-8.4 4.7-16.793 9.411c-.791.444-.795.445-.654 1.323q.786 4.912 1.577 9.824 1.633 10.1 3.273 20.2 1.453 8.941 2.914 17.88c.212 1.3.2 1.307 1.528 1.308h19.351c1.332 0 1.342 0 1.751-1.283 2.505-7.876 4.972-15.764 7.518-23.626a202.472 202.472 0 006.432-23.537 1.92 1.92 0 01.177-.626.641.641 0 01.432-.263c.1-.01.283.153.322.272.115.356.179.728.258 1.095.6 2.785 1.1 5.595 1.812 8.349.967 3.725 2.063 7.418 3.165 11.106q4.115 13.767 8.286 27.516c.3.989.3 1 1.371 1h8.485v-55.886q-.532 3.151-1.039 6.3zM65.213.004c-.251 0-.5.018-.751 0a.874.874 0 00-1 .772c-.182.7-.405 1.382-.613 2.071q-3.082 10.251-6.166 20.5c-1.146 3.806-2.327 7.6-3.445 11.417-1.3 4.449-2.255 8.984-3.155 13.529a3.1 3.1 0 01-.183.724.585.585 0 01-.391.321.552.552 0 01-.386-.315 5.692 5.692 0 01-.231-.907c-.538-2.413-1.04-4.835-1.617-7.238-1.228-5.118-2.876-10.113-4.467-15.126q-1.477-4.654-2.949-9.31Q37.381 8.657 34.891.876c-.264-.825-.327-.866-1.208-.867q-10.049-.008-20.1 0c-.961 0-1 .034-1.147.959q-.839 5.14-1.665 10.283L7.846 29.317q-1.444 8.894-2.893 17.786-1.473 9.079-2.942 18.158-.956 5.883-1.919 11.764c-.053.326-.063.66-.1 1.027a5.418 5.418 0 002.68-.123q2.44-.847 4.884-1.681c4.387-1.49 8.77-2.99 13.167-4.447a1.3 1.3 0 001.043-1.241c.009-.124.04-.247.059-.371l2.716-16.864a141.952 141.952 0 001.835-17.055c.04-1 .118-2 .182-3 .01-.155-.009-.349.074-.454a.867.867 0 01.491-.327c.1-.015.3.2.353.343a6.084 6.084 0 01.216.912 163.571 163.571 0 004.143 16.763q2.367 7.475 4.756 14.943c.074.233.184.454.322.79.49-.152.878-.262 1.259-.391q7.2-2.455 14.4-4.914 5.111-1.742 10.228-3.466a1.5 1.5 0 001.14-1.092c.674-2.508 1.41-5 2.093-7.507 1.376-5.046 2.405-10.17 3.348-15.312a8.748 8.748 0 01.252-1.1.443.443 0 01.33-.261.654.654 0 01.436.26 1.226 1.226 0 01.115.542c.25 2.9.427 5.8.759 8.687.094.82.2 1.64.3 2.459V.002z"/>
  <g fill="#fff">
    <path d="M73.879 191.545a9.494 9.494 0 00-.509-10.319 10.576 10.576 0 00-1.913-2.1v15.519a10.2 10.2 0 002.422-3.1zM93.326 186.881c-.23-.1-.464-.186-.7-.277l-.815-.318c1.687-.591 2.871-1.5 3.112-3.223a4.53 4.53 0 00-4.141-5.434c-2.384-.206-4.8-.042-7.272-.042v18.816h6.43a7.2 7.2 0 001.682-.078 8.407 8.407 0 002.269-.829 4.912 4.912 0 002.359-5.047 4.186 4.186 0 00-2.924-3.568zm-5.948-6.236c1.247-.059 2.5-.226 3.353.91a2.033 2.033 0 01.094 2.379c-.783 1.276-2.078 1.159-3.447 1.116zm4.883 10.269a2.1 2.1 0 01-1.759 2.223 31.511 31.511 0 01-3.14.265v-5.2a27.282 27.282 0 013.41.369 2.156 2.156 0 011.489 2.343zM114.231 180.656c-.364-1.023-.516-2.417-1.257-2.93s-2.112-.115-3.2-.19c-.657-.045-.926.216-1.131.81-1.978 5.695-3.984 11.38-5.979 17.069-.1.281-.168.573-.283.973 1.132 0 2.132-.047 3.125.016.668.042.918-.229 1.1-.829.978-3.227 2-6.44 3-9.661.448-1.443.878-2.891 1.363-4.493.258.83.459 1.485.665 2.139 1.256 3.991 2.5 7.985 3.786 11.969.1.323.428.8.678.815 1.179.086 2.367.038 3.675.038-.141-.426-.241-.746-.352-1.062q-2.593-7.332-5.19-14.664zM135.866 192.943c-1.579.091-3.167.024-4.872.024v-15.364H127.2v18.7h9.821c0-.771-.055-1.461.014-2.139.094-.92-.169-1.278-1.169-1.221zM119.083 97.357h21.135c.219 0 .439.007.658 0 .707-.037.788-.118.823-.837.012-.25 0-.5 0-.751V81.115c0-1.672.093-1.6-1.574-1.6H76.724c-.219 0-.438-.006-.657 0-.729.031-.772.046-.917.786-.24 1.228-.458 2.461-.668 3.695-1.006 5.922-2.036 11.839-3.024 17.764v55.888h11.24c1.352 0 1.348 0 1.519-1.3.082-.62.184-1.237.278-1.856l1.76-11.6q1.012-6.728 2.011-13.459c.577-3.836 1.167-7.67 1.743-11.507q1.192-7.935 2.372-15.872.8-5.384 1.605-10.767.577-3.844 1.167-7.687a5.3 5.3 0 01.3 1.808c-.029 4.284-.114 8.569-.117 12.853q-.022 29.026-.009 58.051c0 1.336 0 1.337 1.352 1.337h43.589c.25 0 .5-.011.751-.005.477.01.683-.233.676-.693 0-.219.005-.438.005-.658v-14.936c0-1.324 0-1.327-1.372-1.327q-9.675 0-19.35.009c-1.061 0-2.123.1-3.184.145-.271.012-.542 0-.8 0v-12.4h22.751c-.231-.324-.328-.476-.441-.617q-6.45-8.066-12.892-16.14a1.72 1.72 0 00-1.51-.728c-2.16.026-4.321.013-6.482.015h-1.424V97.357zM73.766 53.698c.09-.028.178-.06.267-.09q8.89-3.025 17.779-6.052c.988-.337 1.027-.428.859-1.513q-.7-4.544-1.39-9.091-1.457-9.745-2.9-19.491-1.2-8.075-2.414-16.148C85.773.006 85.783.002 84.449.001H71.458v44.144c.374 2.965.8 5.924 1.2 8.885.122.892.235.938 1.108.668zM142.524 60.298h-.282q-10.9 0-21.793.007c-.581 0-1.162.049-1.782.078V47.348c2.559 0 5.061-.045 7.561.022a2.453 2.453 0 002.2-1.1c2.881-3.667 5.814-7.292 8.728-10.933q1.251-1.564 2.493-3.133l-.115-.16c-.458.233-.925.451-1.374.7q-5.12 2.868-10.236 5.746-7.458 4.172-14.922 8.331c-4.944 2.767-9.872 5.563-14.835 8.295a1.786 1.786 0 00-1.094 1.814c.043 5.448.025 10.9.027 16.344V74.4c-.46-1.888-.735-3.773-1.017-5.657-.288-1.918-.566-3.838-.88-5.752-.305-1.858-.445-3.747-.9-5.7-.936.527-1.722.972-2.509 1.413q-7.866 4.4-15.732 8.806c-.8.451-.834.523-.677 1.416.455 2.589.951 5.171 1.355 7.768.271 1.741.5 1.444 1.708 1.444q31.75.008 63.5 0h.564c.887-.024.957-.077.958-.98q.011-7.937 0-15.875c-.001-.904-.068-.958-.946-.985zM141.938.002H98.747c-.251 0-.5-.006-.752 0-.821.027-.88.091-.906.938v.282q0 21.737.005 43.473c0 .3.034.606.056.973a7.1 7.1 0 00.711-.158q9.508-3.241 19.014-6.488 11.421-3.884 22.848-7.752a3.993 3.993 0 00.781-.314 1.185 1.185 0 00.715-1.025h-22.5V17.45c.933.059 1.8.16 2.667.162q10.422.021 20.845.011c1.238 0 1.241-.005 1.242-1.259V1.529c.004-1.613.08-1.527-1.535-1.527z"/>
  </g>
</svg>
